<mxfile host="app.diagrams.net" modified="2023-12-02T14:10:14.972Z" agent="Mozilla/5.0 (Windows NT 10.0; Win64; x64) AppleWebKit/537.36 (KHTML, like Gecko) Chrome/118.0.0.0 Whale/3.23.214.10 Safari/537.36" version="22.1.5" etag="k0U5JX1L8LvP-TgybCr8" type="github">
  <diagram name="페이지-1" id="eQezgQoo5XlBhVdE-zHc">
    <mxGraphModel>
      <root>
        <mxCell id="0" />
        <mxCell id="1" parent="0" />
      </root>
    </mxGraphModel>
  </diagram>
</mxfile>
